<?xml version="1.0" encoding="UTF-8" standalone="no"?>
<svg width="52px" height="22px" viewBox="0 0 52 22" version="1.1" xmlns="http://www.w3.org/2000/svg" xmlns:xlink="http://www.w3.org/1999/xlink" xmlns:sketch="http://www.bohemiancoding.com/sketch/ns">
    <!-- Generator: Sketch 3.4.2 (15855) - http://www.bohemiancoding.com/sketch -->
    <title>Group</title>
    <desc>Created with Sketch.</desc>
    <defs></defs>
    <g id="Page-1" stroke="none" stroke-width="1" fill="none" fill-rule="evenodd" sketch:type="MSPage">
        <g id="Group" sketch:type="MSLayerGroup" fill="#000000">
            <path d="M19.059,3.567 L1.973,3.567 C1.144,3.567 0.473,2.895 0.473,2.067 C0.473,1.239 1.144,0.567 1.973,0.567 L19.059,0.567 C19.888,0.567 20.559,1.239 20.559,2.067 C20.559,2.895 19.887,3.567 19.059,3.567 L19.059,3.567 Z" id="Shape" sketch:type="MSShapeGroup"></path>
            <path d="M14.059,9.567 L1.973,9.567 C1.144,9.567 0.473,8.895 0.473,8.067 C0.473,7.239 1.144,6.567 1.973,6.567 L14.059,6.567 C14.888,6.567 15.559,7.239 15.559,8.067 C15.559,8.895 14.887,9.567 14.059,9.567 L14.059,9.567 Z" id="Shape" sketch:type="MSShapeGroup"></path>
            <path d="M14.059,15.567 L1.973,15.567 C1.144,15.567 0.473,14.895 0.473,14.067 C0.473,13.239 1.144,12.567 1.973,12.567 L14.059,12.567 C14.888,12.567 15.559,13.239 15.559,14.067 C15.559,14.895 14.887,15.567 14.059,15.567 L14.059,15.567 Z" id="Shape" sketch:type="MSShapeGroup"></path>
            <path d="M18.197,21.567 L1.973,21.567 C1.144,21.567 0.473,20.895 0.473,20.067 C0.473,19.239 1.144,18.567 1.973,18.567 L18.197,18.567 C19.026,18.567 19.697,19.239 19.697,20.067 C19.697,20.895 19.025,21.567 18.197,21.567 L18.197,21.567 Z" id="Shape" sketch:type="MSShapeGroup"></path>
            <path d="M35.426,21.567 C26.651,21.567 20.24,12.095 19.971,11.693 C19.64,11.196 19.636,10.55 19.958,10.048 C20.218,9.645 26.434,0.154 35.425,0.154 C44.614,0.154 50.651,9.662 50.904,10.066 C51.212,10.559 51.207,11.186 50.891,11.674 C50.631,12.079 44.397,21.567 35.426,21.567 L35.426,21.567 Z M23.072,10.85 C24.729,12.989 29.609,18.568 35.426,18.568 C41.417,18.568 46.199,12.974 47.798,10.851 C46.234,8.73 41.54,3.156 35.426,3.156 C29.465,3.155 24.689,8.71 23.072,10.85 L23.072,10.85 Z" id="Shape" sketch:type="MSShapeGroup"></path>
            <path d="M35.25,16.365 C32.169,16.365 29.662,13.858 29.662,10.777 C29.662,7.696 32.169,5.189 35.25,5.189 C38.332,5.189 40.838,7.696 40.838,10.777 C40.838,13.858 38.332,16.365 35.25,16.365 L35.25,16.365 Z M35.25,8.189 C33.823,8.189 32.662,9.35 32.662,10.777 C32.662,12.204 33.823,13.365 35.25,13.365 C36.677,13.365 37.838,12.204 37.838,10.777 C37.838,9.35 36.678,8.189 35.25,8.189 L35.25,8.189 Z" id="Shape" sketch:type="MSShapeGroup"></path>
        </g>
    </g>
</svg>