<?xml version="1.0" encoding="UTF-8" standalone="no"?>
<svg width="80px" height="86px" viewBox="0 0 80 86" version="1.1" xmlns="http://www.w3.org/2000/svg" xmlns:xlink="http://www.w3.org/1999/xlink" xmlns:sketch="http://www.bohemiancoding.com/sketch/ns">
    <!-- Generator: Sketch 3.4.2 (15855) - http://www.bohemiancoding.com/sketch -->
    <title>Shape + Shape</title>
    <desc>Created with Sketch.</desc>
    <defs></defs>
    <g id="Page-1" stroke="none" stroke-width="1" fill="none" fill-rule="evenodd" sketch:type="MSPage">
        <g id="Shape-+-Shape" sketch:type="MSLayerGroup" fill="#439BAD">
            <path d="M71.703,0.48 L8.296,0.48 C4.061,0.48 0.613,3.928 0.613,8.164 L0.613,52.548 C0.613,56.784 4.06,60.229 8.296,60.229 L34.634,60.229 L34.634,67.846 C24.776,68.646 15.833,71.644 15.833,76.565 C15.833,82.378 28.285,85.519 40,85.519 C51.716,85.519 64.169,82.378 64.169,76.565 C64.169,71.644 55.228,68.646 45.369,67.846 L45.369,60.229 L71.703,60.229 C75.937,60.229 79.386,56.785 79.386,52.548 L79.386,8.165 C79.386,3.928 75.938,0.48 71.703,0.48 L71.703,0.48 Z M61.484,76.565 C61.484,79.184 53.311,82.835 40,82.835 C26.69,82.835 18.517,79.189 18.517,76.565 C18.517,74.325 24.537,71.329 34.635,70.517 L34.635,73.66 C34.635,76.622 37.039,79.027 40.001,79.027 C42.962,79.027 45.37,76.622 45.37,73.66 L45.37,70.517 C55.466,71.329 61.484,74.325 61.484,76.565 L61.484,76.565 Z M42.685,67.679 L42.685,70.361 L42.685,73.661 C42.685,75.144 41.479,76.348 40,76.348 C38.521,76.348 37.316,75.147 37.316,73.661 L37.316,70.361 L37.316,67.679 L37.316,60.23 L42.685,60.23 L42.685,67.679 L42.685,67.679 L42.685,67.679 Z M76.701,52.549 C76.701,55.305 74.46,57.543 71.703,57.543 L8.296,57.543 C5.54,57.543 3.298,55.305 3.298,52.549 L3.298,8.165 C3.298,5.408 5.54,3.167 8.296,3.167 L71.703,3.167 C74.46,3.167 76.701,5.41 76.701,8.165 L76.701,52.549 L76.701,52.549 Z" id="Shape" sketch:type="MSShapeGroup"></path>
            <path d="M58.8324958,54.8 C58.3668342,54.8 57.9477387,54.5671692 57.7149079,54.1480737 L54.4552764,48.280737 L48.5879397,54.1480737 C48.1222781,54.6137353 47.2840871,54.6137353 46.8184255,54.1480737 L43.6053601,50.9350084 C43.3725293,50.7021776 43.2328308,50.3762144 43.2328308,50.0502513 C43.2328308,49.7242881 43.3725293,49.398325 43.6053601,49.1654941 L49.4726968,43.2981575 L43.6519263,40.0850921 C43.2328308,39.8522613 43,39.3865997 43,38.920938 C43.0465662,38.4552764 43.3259631,38.0361809 43.7450586,37.8499162 L69.0304858,27.0931323 C69.4961474,26.9068677 70.0549414,27 70.4274707,27.3725293 C70.8,27.7450586 70.8931323,28.3038526 70.7068677,28.7695142 L59.9966499,54.0083752 C59.8103853,54.4740369 59.3912898,54.7534338 58.9256281,54.7534338 C58.879062,54.8 58.8324958,54.8 58.8324958,54.8 L58.8324958,54.8 Z M46.3061977,50.0968174 L47.7031826,51.4938023 L53.8499162,45.3470687 C54.1293132,45.0676717 54.5018425,44.9279732 54.920938,44.9745394 C55.2934673,45.0211055 55.6659966,45.2539363 55.8522613,45.6264657 L58.6462312,50.7021776 L67.1678392,30.6321608 L47.1443886,39.1072027 L52.1735343,41.9011725 C52.4994975,42.0874372 52.7323283,42.4134003 52.8254606,42.8324958 C52.8720268,43.2050251 52.7323283,43.6241206 52.4529313,43.9035176 L46.3061977,50.0968174 L46.3061977,50.0968174 Z" id="Shape" sketch:type="MSShapeGroup" transform="translate(56.900000, 40.900000) scale(-1, 1) translate(-56.900000, -40.900000) "></path>
        </g>
    </g>
</svg>